# xmcd
#
# Track frame offsets: 
#        150
#        16787
#        30130
#        49137
#        60887
#        77437
#        91230
#        106652
#        122050
#        139622
#        151500
#
# Disc length: 2290 seconds
#
# Revision: 2
# Processed by: cddbd v1.5.1PL2 Copyright (c) Steve Scherf et al.
# Submitted via: ExactAudioCopy v0.90b4
#
DISCID=6508f00b
DTITLE=Carlene Carter - I Fell In Love
DYEAR=1900
DGENRE=country
TTITLE0=I Fell in Love
TTITLE1=Come On Back
TTITLE2=The Sweetest Thing
TTITLE3=My Dixie Darlin'
TTITLE4=Goodnight Dallas
TTITLE5=One Love
TTITLE6=The Leavin' Side
TTITLE7=Guardian Angel
TTITLE8=Me and the Wildwood Rose
TTITLE9=You Are the One
TTITLE10=Easy From Now On
EXTD=
EXTT0=
EXTT1=
EXTT2=
EXTT3=
EXTT4=
EXTT5=
EXTT6=
EXTT7=
EXTT8=
EXTT9=
EXTT10=
PLAYORDER=
